<svg width="317" height="328" viewBox="0 0 317 328" fill="none" xmlns="http://www.w3.org/2000/svg">
<g clip-path="url(#clip0_2861_2)">
<mask id="mask0_2861_2" style="mask-type:luminance" maskUnits="userSpaceOnUse" x="0" y="0" width="317" height="328">
<path d="M317 0H0V328H317V0Z" fill="white"/>
</mask>
<g mask="url(#mask0_2861_2)">
<path d="M308.516 242.427C302.828 243.995 294.903 240.49 293.878 234.22C292.666 226.566 290.241 216.792 283.622 211.812C280.918 209.784 278.307 209.138 275.044 209.876C273.273 210.337 271.128 211.812 270.103 212.827C268.145 214.855 266.839 216.884 265.441 220.204C264.881 221.402 263.763 225.46 263.203 227.857C261.711 234.036 261.339 238.831 261.059 245.654C260.126 266.587 263.11 290.009 253.134 309.281C248.659 317.765 241.013 325.049 231.503 327.355C230.291 327.631 229.079 327.908 227.96 328H68.155C64.6121 328 61.815 325.049 62.0015 321.545L68.8077 201.208C68.9009 198.718 70.9521 196.782 73.4694 196.597L140.599 192.263C142.65 192.171 144.608 193.278 145.447 195.214L164.747 239.199C165.306 240.49 166.425 241.505 167.824 241.966L185.538 247.499C197.752 251.279 208.94 258.933 215.467 270.091C218.637 275.531 220.874 281.709 221.807 288.164L224.417 304.855C226.189 304.578 227.681 303.933 229.079 302.642C235.699 296.371 236.165 285.029 236.631 276.638C237.75 257.826 235.979 238.738 240.64 220.296C244.929 203.421 256.397 187.929 275.137 186.269C298.912 184.149 313.644 207.755 316.907 228.042C317.932 234.312 315.415 240.675 308.609 242.519L308.516 242.427Z" fill="black"/>
<path d="M215.094 119.97C215.094 140.995 206.423 162.388 192.344 178.525C178.359 194.754 159.059 205.636 137.802 205.636H77.3853C34.7768 205.636 0 162.019 0 119.97C0 98.8534 8.67088 82.0707 22.7494 70.5442C27.5044 66.6712 32.7256 63.3516 38.5062 60.6774C39.4385 60.2164 40.1844 59.4787 40.4641 58.4643L57.7126 2.67573C58.8315 -0.920556 63.8662 -0.920556 64.985 2.67573L79.9026 49.9808C80.3688 51.5484 81.8606 52.6549 83.5388 52.6549H127.173C128.851 52.6549 130.343 51.5484 130.809 49.9808L145.354 2.67573C146.473 -0.920556 151.507 -0.920556 152.626 2.67573L169.595 56.4356C169.968 57.5422 170.807 58.3721 171.833 58.741C197.379 68.5155 215.094 89.9088 215.094 119.97Z" fill="black"/>
<path d="M105.356 146.71L98.8294 139.056C97.4309 137.397 98.1767 134.907 100.228 134.261C103.584 133.155 108.712 132.325 114.959 134.354C117.01 134.999 117.756 137.489 116.358 139.149C114.493 141.454 111.882 144.497 110.111 146.618C108.899 148.093 106.661 148.093 105.449 146.618L105.356 146.71Z" fill="white"/>
<path d="M79.1569 124.025C73.0033 132.878 61.4422 136.566 53.051 134.538C39.9048 131.495 29.276 113.237 35.0566 92.3965C39.1589 95.2551 44.6598 98.5747 51.466 101.341C52.678 101.894 53.9833 102.448 55.2886 102.909C58.1789 104.015 61.0692 104.845 63.773 105.583C71.6048 107.519 78.5042 107.98 83.5389 108.073C83.7254 110.747 83.7254 117.571 79.1569 124.025Z" fill="white"/>
<path d="M63.7731 105.583C62.1881 112.223 59.764 120.153 57.2467 120.061C54.2631 119.968 52.3052 108.073 51.4661 101.342C52.6781 101.895 53.9834 102.448 55.2887 102.909C58.179 104.016 61.0693 104.846 63.7731 105.583Z" fill="black"/>
<path d="M180.038 92.3969C175.189 95.8088 168.476 99.7739 159.805 102.909C148.431 106.966 138.361 107.889 131.462 107.981C131.369 110.655 131.369 117.479 135.844 123.934C142.091 132.786 153.559 136.474 161.95 134.446C175.096 131.311 185.725 113.145 179.944 92.3047L180.038 92.3969Z" fill="white"/>
<path d="M151.321 105.583C152.906 112.223 155.33 120.153 157.848 120.061C160.831 120.061 162.696 108.165 163.628 101.434L151.321 105.583Z" fill="black"/>
</g>
</g>
<defs>
<clipPath id="clip0_2861_2">
<rect width="317" height="328" fill="white"/>
</clipPath>
</defs>
</svg>
